Coordinates
version=1
nRows=7
nColumns=46
inDegrees=yes

Units are S.I. units (second, meters, Newtons, ...)
Angles are in degrees.

endheader
time	pelvis_tilt	pelvis_list	pelvis_rotation	pelvis_tx	pelvis_ty	pelvis_tz	bb_angle	bb_tx	bb_ty	bb_tz	hip_flexion_r	hip_adduction_r	hip_rotation_r	knee_angle_r	knee_angle_r_beta	ankle_angle_r	subtalar_angle_r	mtp_angle_r	crank_angle_r	hip_flexion_l	hip_adduction_l	hip_rotation_l	knee_angle_l	knee_angle_l_beta	ankle_angle_l	subtalar_angle_l	mtp_angle_l	crank_angle_l	lumbar_extension	lumbar_bending	lumbar_rotation	arm_flex_r	arm_add_r	arm_rot_r	elbow_flex_r	pro_sup_r	wrist_flex_r	wrist_dev_r	arm_flex_l	arm_add_l	arm_rot_l	elbow_flex_l	pro_sup_l	wrist_flex_l	wrist_dev_l
      2.50000000	    -21.18148800	      2.61461100	     15.79662085	      0.05369573	      1.10357941	     -0.26696852	      0.00000000	      0.50000000	      0.00000000	      0.25000000	     58.57833395	    -12.28320373	      2.71508567	     74.47295385	      1.29979825	    -15.70108775	    -18.45395650	      0.00000000	      0.00000000	     80.29626835	      7.47867909	     -0.48194200	     74.04975013	      1.29241195	     18.07601807	     -3.96670317	      0.00000000	      0.00000000	    -57.26996278	     -1.26463769	     -8.63009591	     78.20224472	    -30.53616638	     16.97056600	     67.92837593	     45.93122525	      0.00000000	      0.00000000	     89.80917572	    -10.18544659	     26.63268021	     82.62272201	     30.85510387	      0.00000000	      0.00000000
      2.50500000	    -20.31348965	      3.09118056	     15.58615184	      0.05210694	      1.10524156	     -0.26619611	      0.00000000	      0.50000000	      0.00000000	      0.25000000	     58.30572176	    -12.29255347	      3.09530699	     75.80508019	      1.32304824	    -15.25344255	    -18.29441549	      0.00000000	      0.00000000	     78.45210084	      7.60267331	     -0.40676433	     72.23012912	      1.26065357	     17.28194154	     -4.23549703	      0.00000000	      0.00000000	    -59.19055049	     -2.12536952	     -7.54186241	     78.51384035	    -33.72424111	     17.12585184	     69.15886080	     46.23017516	      0.00000000	      0.00000000	     89.67776095	    -14.64523599	     35.19393810	     75.00990867	     29.92763861	      0.00000000	      0.00000000
      2.51000000	    -20.24455316	      3.03089998	     15.24708239	      0.05133056	      1.10527662	     -0.26608933	      0.00000000	      0.50000000	      0.00000000	      0.25000000	     58.92061745	    -12.01123372	      3.26847735	     77.14012426	      1.34634915	    -14.86331864	    -18.27834315	      0.00000000	      0.00000000	     77.59354707	      7.50693053	     -0.03951582	     70.62418813	      1.23262461	     16.65221817	     -4.39189196	      0.00000000	      0.00000000	    -59.28367645	     -2.27718144	     -7.02395210	     78.53590162	    -34.22325641	     17.29549521	     69.65472020	     46.31168265	      0.00000000	      0.00000000	     89.67938943	    -14.35719989	     35.06578216	     74.89295542	     30.47400265	      0.00000000	      0.00000000
      2.51500000	    -20.18430070	      2.92874629	     14.89622192	      0.05054873	      1.10532378	     -0.26599131	      0.00000000	      0.50000000	      0.00000000	      0.25000000	     59.54378252	    -11.71868953	      3.39617139	     78.44103697	      1.36905436	    -14.44776093	    -18.18500464	      0.00000000	      0.00000000	     76.75289635	      7.35163119	      0.29712832	     69.01808462	      1.20459282	     15.94264631	     -4.58863557	      0.00000000	      0.00000000	    -59.32096379	     -2.41202735	     -6.55658527	     78.64551356	    -34.47140876	     17.45711863	     69.84533181	     46.32903721	      0.00000000	      0.00000000	     89.67969997	    -14.10950681	     34.87545058	     74.73154897	     30.95916424	      0.00000000	      0.00000000
      2.52000000	    -20.16700544	      2.76857244	     14.52538831	      0.04966785	      1.10528068	     -0.26595390	      0.00000000	      0.50000000	      0.00000000	      0.25000000	     60.25567968	    -11.36027600	      3.54160256	     79.77371045	      1.39231390	    -14.02440712	    -18.06606113	      0.00000000	      0.00000000	     75.96674415	      7.20089594	      0.78636550	     67.41859128	      1.17667639	     15.16259327	     -4.65752891	      0.00000000	      0.00000000	    -59.26492729	     -2.48719893	     -6.06143943	     78.84986825	    -34.63114825	     17.70993729	     69.88442642	     46.28022402	      0.00000000	      0.00000000	     89.68152488	    -13.97519617	     34.71564127	     74.49095419	     31.81943328	      0.00000000	      0.00000000
      2.52500000	    -20.35232789	      2.52453456	     14.12224472	      0.04891100	      1.10502031	     -0.26595527	      0.00000000	      0.50000000	      0.00000000	      0.25000000	     61.16012223	    -11.00127209	      3.61145566	     81.03076391	      1.41425363	    -13.46683087	    -17.69009816	      0.00000000	      0.00000000	     75.42736499	      6.90439066	      1.15499524	     65.86187453	      1.14950656	     14.38000030	     -4.52448597	      0.00000000	      0.00000000	    -59.11450485	     -2.54244235	     -5.73167871	     79.04971702	    -34.32789624	     17.09542631	     70.33915334	     46.19247529	      0.00000000	      0.00000000	     89.65632597	    -14.01769988	     33.83169841	     75.01682882	     32.75226729	      0.00000000	      0.00000000
      2.53000000	    -20.15010186	      2.34893405	     13.70849209	      0.04821285	      1.10555489	     -0.26599524	      0.00000000	      0.50000000	      0.00000000	      0.25000000	     61.63157242	    -10.67213164	      3.56931118	     82.23009059	      1.43518583	    -13.14057489	    -17.67112714	      0.00000000	      0.00000000	     74.40282728	      6.67336768	      1.61121715	     64.21474853	      1.12075879	     13.29908067	     -4.91616904	      0.00000000	      0.00000000	    -59.08615420	     -2.70157967	     -5.12128267	     79.49783896	    -34.84630130	     18.48664576	     69.27606257	     46.12008710	      0.00000000	      0.00000000	     89.68053186	    -13.72242172	     34.58548012	     73.78518469	     32.98504885	      0.00000000	      0.00000000
